HIERARCHY
ROOT root
{
	OFFSET 0.000000 0.000000 0.000000
	CHANNELS 6 Xposition Yposition Zposition Zrotation Yrotation Xrotation
	JOINT lhip
	{
		OFFSET 0.058581 -0.082280 -0.017664
		CHANNELS 3 Zrotation Yrotation Xrotation
		JOINT lknee
		{
			OFFSET 0.043451 -0.386469 0.008037
			CHANNELS 3 Zrotation Yrotation Xrotation
			JOINT lankle
			{
				OFFSET -0.014790 -0.426874 -0.037428
				CHANNELS 3 Zrotation Yrotation Xrotation
				JOINT ltoe
				{
					OFFSET 0.041054 -0.060286 0.122042
					CHANNELS 3 Zrotation Yrotation Xrotation
					End Site
					{
						OFFSET 0.000000 0.000000 0.000000
					}
				}
			}
		}
	}
	JOINT rhip
	{
		OFFSET -0.060310 -0.090513 -0.013543
		CHANNELS 3 Zrotation Yrotation Xrotation
		JOINT rknee
		{
			OFFSET -0.043257 -0.383688 -0.004843
			CHANNELS 3 Zrotation Yrotation Xrotation
			JOINT rankle
			{
				OFFSET 0.019056 -0.420046 -0.034562
				CHANNELS 3 Zrotation Yrotation Xrotation
				JOINT rtoe
				{
					OFFSET -0.034840 -0.062106 0.130323
					CHANNELS 3 Zrotation Yrotation Xrotation
					End Site
					{
						OFFSET 0.000000 0.000000 0.000000
					}
				}
			}
		}
	}
	JOINT lowerback
	{
		OFFSET 0.004439 0.124404 -0.038385
		CHANNELS 3 Zrotation Yrotation Xrotation
		JOINT upperback
		{
			OFFSET 0.004488 0.137956 0.026820
			CHANNELS 3 Zrotation Yrotation Xrotation
			JOINT chest
			{
				OFFSET -0.002265 0.056032 0.002855
				CHANNELS 3 Zrotation Yrotation Xrotation
				JOINT lowerneck
				{
					OFFSET -0.013390 0.211636 -0.033468
					CHANNELS 3 Zrotation Yrotation Xrotation
					JOINT upperneck
					{
						OFFSET 0.010113 0.088937 0.050410
						CHANNELS 3 Zrotation Yrotation Xrotation
						End Site
						{
							OFFSET 0.000000 0.000000 0.000000
						}
					}
				}
				JOINT lclavicle
				{
					OFFSET 0.071702 0.114000 -0.018898
					CHANNELS 3 Zrotation Yrotation Xrotation
					JOINT lshoulder
					{
						OFFSET 0.122921 0.045205 -0.019046
						CHANNELS 3 Zrotation Yrotation Xrotation
						JOINT lelbow
						{
							OFFSET 0.255332 -0.015649 -0.022946
							CHANNELS 3 Zrotation Yrotation Xrotation
							JOINT lwrist
							{
								OFFSET 0.265709 0.012698 -0.007375
								CHANNELS 3 Zrotation Yrotation Xrotation
								End Site
								{
									OFFSET 0.000000 0.000000 0.000000
								}
							}
						}
					}
				}
				JOINT rclavicle
				{
					OFFSET -0.082954 0.112472 -0.023707
					CHANNELS 3 Zrotation Yrotation Xrotation
					JOINT rshoulder
					{
						OFFSET -0.113228 0.046853 -0.008472
						CHANNELS 3 Zrotation Yrotation Xrotation
						JOINT relbow
						{
							OFFSET -0.260127 -0.014369 -0.031269
							CHANNELS 3 Zrotation Yrotation Xrotation
							JOINT rwrist
							{
								OFFSET -0.269108 0.006794 -0.006027
								CHANNELS 3 Zrotation Yrotation Xrotation
								End Site
								{
									OFFSET 0.000000 0.000000 0.000000
								}
							}
						}
					}
				}
			}
		}
	}
}
MOTION
Frames: 16
Frame Time: 0.033333
1.293091 0.735643 0.870992 -92.743541 2.359518 94.118147 7.537699 6.002382 -38.834278 -9.770019 10.150052 60.223320 5.268310 22.414800 -33.671805 0.000000 -0.000000 0.000000 1.981305 -2.132365 -35.833655 3.896571 -3.281550 59.629786 0.405709 -18.127314 -38.199690 0.000000 -0.000000 0.000000 -0.147654 0.125166 29.597556 -0.736961 -1.514297 -10.893358 0.956776 -1.993171 7.952309 2.150819 0.714176 -15.903793 7.388068 5.057368 -24.632821 -5.458930 13.664471 -4.694965 -19.471878 11.156540 -19.976811 15.122411 -15.816200 -22.409915 13.575105 -1.976585 -4.461262 1.571084 -12.598954 -1.109827 27.527794 -15.541292 -8.540251 -13.559152 14.830129 0.069305 -8.833384 1.002112 15.970514 
1.296118 0.737742 0.846796 -90.612207 1.458361 95.530139 7.859920 4.696974 -43.988895 -9.203389 12.736503 65.486331 6.608898 21.528867 -34.504939 0.000000 -0.000000 0.000000 0.548075 -2.127894 -40.550418 2.691492 -5.346631 65.718518 -0.320287 -18.444384 -39.713374 0.000000 -0.000000 0.000000 -0.816013 1.203821 31.734598 -0.827927 -0.650095 -10.493746 0.800466 -2.017718 6.273251 3.006385 -0.451068 -21.220668 8.555119 2.594887 -23.990702 -12.032471 9.717251 -3.054655 -25.484036 7.785678 -17.205091 17.188787 -16.351441 -22.916201 14.440828 -0.160138 -4.987390 7.963819 -8.856060 0.882476 34.870284 -15.915414 -6.503536 -14.468030 14.246339 -2.400780 -10.155409 0.144233 13.366879 
1.296092 0.741224 0.833062 -86.440004 1.210262 95.901572 8.392692 2.314968 -46.972818 -8.506882 13.045844 68.872440 7.234457 19.211384 -34.718704 0.000000 -0.000000 0.000000 -0.294361 -2.488395 -42.073886 0.644797 -8.071954 68.991052 -1.225371 -18.910438 -39.948172 0.000000 -0.000000 0.000000 -0.603157 2.211930 34.648585 -0.483420 -0.325059 -9.263140 1.137306 -1.839613 3.360399 3.532285 -2.342541 -26.044096 10.080178 -1.085906 -23.556580 -18.250758 3.279013 -0.012717 -33.681377 4.706145 -12.584828 18.308773 -18.214559 -21.235771 13.703254 1.921651 -6.659124 14.976593 -1.158355 4.273783 43.410703 -13.797552 -4.357389 -15.723473 12.718158 -8.323449 -12.329989 -1.838070 7.701490 
1.294350 0.744043 0.829615 -82.006068 1.038811 96.283656 9.190945 -0.762092 -48.355890 -6.619415 13.978797 69.962702 7.784805 16.037506 -35.253856 0.000000 -0.000000 0.000000 -1.750833 -2.156397 -41.963636 -1.714648 -11.814804 70.148697 -3.362553 -19.743046 -39.044342 0.000000 -0.000000 0.000000 0.080904 3.283529 35.809562 -0.966084 -0.732149 -7.768046 2.082896 -1.586389 0.834376 2.875396 -4.722559 -29.432003 12.070956 -3.135029 -21.826315 -22.731079 -5.418142 3.037910 -44.140740 5.018591 -10.237026 18.027400 -21.016041 -17.944082 5.973726 0.574419 0.141673 19.195312 9.742011 8.452191 52.968373 -6.971583 -3.872196 -17.890754 15.601545 -14.508397 -16.049251 -3.798346 6.665432 
1.288958 0.747544 0.836556 -77.990084 1.032767 96.658948 9.304937 -1.752770 -48.205516 -7.039087 12.830815 68.910602 7.902855 13.582263 -35.227638 0.000000 -0.000000 0.000000 -1.891049 -2.802020 -40.108239 -3.320331 -14.102304 68.530866 -3.808746 -19.130955 -39.272368 0.000000 -0.000000 0.000000 0.114836 4.432597 34.213722 -1.405398 -0.287406 -6.122730 1.904421 -1.017548 0.010575 4.268786 -3.561322 -31.166224 10.053762 -6.487011 -19.987774 -24.303030 -7.983952 4.260348 -53.199907 3.004650 -3.518426 14.586909 -24.003751 -4.927504 3.757531 0.230089 -0.992852 20.391103 14.769495 7.151699 57.630593 4.862219 3.149772 -13.024605 24.470204 -1.057609 -17.698655 -3.256075 7.176705 
1.281367 0.752629 0.855654 -73.539636 1.073789 97.357767 8.533210 -1.408182 -46.761315 -8.445206 9.863503 65.022905 8.175763 11.189393 -33.819214 0.000000 -0.000000 0.000000 -0.767862 -5.164616 -37.328602 -2.954724 -15.141503 64.056764 -3.727874 -18.717976 -38.146027 0.000000 -0.000000 0.000000 0.832616 5.583611 31.150754 -2.505884 0.679987 -6.749439 0.931540 0.389913 1.546808 4.573570 -2.400601 -32.153637 7.103209 -9.689106 -16.673189 -23.366231 -8.479989 3.775958 -57.501633 4.327407 1.972458 6.368438 -29.619731 12.773694 1.790513 -0.533995 -2.230361 18.352150 18.876905 4.513703 59.741351 15.942057 10.313223 -6.023449 43.191185 14.334854 -17.200687 0.571105 2.203178 
1.267144 0.760006 0.889019 -67.670912 0.520686 96.943249 7.528462 -0.941785 -41.843480 -10.553614 6.610733 56.981057 8.498220 7.724140 -29.603508 0.000000 -0.000000 0.000000 -0.101603 -8.589542 -31.075059 -1.496772 -16.343834 55.468539 -3.436517 -17.988552 -34.562368 0.000000 -0.000000 0.000000 1.458129 8.493991 27.673518 -3.773462 2.826880 -6.171741 0.317490 2.212174 2.472303 4.021651 -2.734459 -31.455605 4.781700 -11.012834 -14.789589 -19.747943 -6.313628 0.217018 -57.453780 7.367513 6.617131 -6.386734 -37.792452 31.556441 2.115495 1.096525 -0.729111 13.648174 21.333707 0.628792 61.349974 22.355409 14.752814 -11.811440 64.692600 8.387237 -20.905289 2.130783 -2.524160 
1.246232 0.763503 0.938933 -57.467904 -0.152478 96.792061 6.743299 -2.332960 -35.296618 -12.397450 2.562047 44.737694 6.762043 2.267162 -20.227722 0.000000 -0.000000 0.000000 0.074892 -12.627544 -21.955478 0.354329 -19.354190 42.192243 -1.945171 -15.832681 -25.922636 0.000000 -0.000000 0.000000 1.632194 11.284714 22.425832 -3.447056 3.069373 -4.732645 0.735442 3.132132 1.968637 2.851080 -1.229769 -27.989575 2.868315 -8.446685 -13.463989 -16.040067 -4.120504 -0.976645 -57.672684 9.845462 7.836832 -12.707631 -41.465075 37.339227 4.356672 0.453568 -1.618196 8.981094 20.293250 -2.407284 61.328539 23.679153 16.451484 -36.928580 81.664791 -15.665326 -20.530354 4.932927 -6.009817 
1.224597 0.761610 1.003446 -44.177131 -1.745146 96.745004 4.301640 -4.176095 -26.481963 -11.269462 -3.913515 26.509888 -1.108711 -4.507144 -0.910575 0.000000 -0.000000 0.000000 0.950207 -13.650596 -13.007009 -0.626681 -22.386399 27.089155 2.011085 -13.368594 -6.232995 0.000000 -0.000000 0.000000 1.215457 12.325926 16.572757 -3.357878 2.546157 -2.477520 1.241988 3.269511 1.054500 -0.082644 2.533011 -24.006219 1.863885 -1.849861 -13.136748 -13.005678 -3.746155 -1.284832 -57.957510 10.047010 8.292611 -13.065286 -40.296401 34.513905 7.453900 -0.659977 3.758445 5.817479 17.982184 -3.462106 63.327078 20.160984 19.357103 -131.482001 86.718334 -109.887203 -18.258502 6.007663 -7.207210 
1.205815 0.751656 1.074996 -28.993313 -4.852671 95.825179 -1.229395 -5.264748 -13.894093 -2.499981 -3.212545 -1.134994 -17.194672 -1.277753 32.373184 0.000000 -0.000000 0.000000 1.691256 -12.751022 -6.016367 -5.988385 -25.531579 13.864842 6.246170 -12.558297 23.277559 0.000000 -0.000000 0.000000 -0.284145 11.034515 12.431476 -4.088224 1.898628 0.122407 1.944072 3.029303 -2.586101 -4.755917 5.514100 -15.864785 1.221782 8.227811 -15.161103 -12.227361 -5.006048 1.209397 -58.137686 6.746776 7.433234 -10.896440 -32.390795 25.186509 5.877599 -1.556043 7.394638 5.408326 16.101681 0.776884 68.353636 16.214436 24.006887 81.110924 88.478196 100.902526 -23.430038 7.675012 -5.666411 
1.192430 0.740477 1.138987 -13.146589 -6.136118 94.792551 -5.140556 0.741641 -10.416228 2.250001 11.952175 -1.640154 -13.901694 5.385924 30.418309 0.000000 -0.000000 0.000000 3.962630 -9.247434 -1.704236 -6.813003 -16.607856 3.986541 10.233437 -6.935370 38.269516 0.000000 -0.000000 0.000000 -0.226539 9.290676 8.944417 -4.520954 0.847098 1.015817 2.314720 3.280082 -5.836519 -7.493294 11.248024 -7.426325 -1.059434 19.781258 -15.907833 -16.864858 -9.803690 4.916808 -55.184559 3.396822 3.252422 -5.988568 -20.192268 17.052479 0.369042 0.090072 16.164901 9.092730 14.433142 7.957145 69.584521 13.736965 23.801714 36.165099 80.994934 56.923035 -22.835571 8.255104 -3.481394 
1.188035 0.736835 1.188577 3.583142 -7.518279 95.250371 -4.115953 -3.998717 -10.797389 -0.229865 5.553325 4.427428 -11.006120 3.442358 36.912478 0.000000 -0.000000 0.000000 2.436940 -6.068034 -5.279706 -1.806646 -12.031409 4.947130 14.317407 -4.428892 39.910289 0.000000 -0.000000 0.000000 -1.198658 8.152487 5.242842 -3.015325 -0.552887 2.604894 1.342157 3.199099 -7.700696 -7.183698 21.834383 -7.555983 -4.225972 27.474533 -13.142887 -22.677239 -12.401708 5.156302 -52.168931 0.242918 5.626390 1.343215 -11.859092 13.380104 -4.380534 5.360841 22.320319 13.920376 10.320384 9.131455 69.187446 8.226854 24.100795 11.615118 77.355611 37.647871 -4.524711 3.296717 -5.683669 
1.180252 0.737474 1.224865 22.125780 -7.780788 93.871692 -3.003667 -4.078873 -10.834407 0.062696 4.648712 6.447962 -9.433924 4.109579 36.936257 0.000000 -0.000000 0.000000 2.919216 -3.033964 -9.114819 -2.958980 -10.181372 10.259566 13.788915 -4.730770 40.957904 0.000000 -0.000000 0.000000 -1.032042 6.709693 4.506676 -2.260348 -1.519878 4.417487 1.202599 2.322758 -8.456368 -8.749926 29.096155 -9.997994 -5.221945 32.801652 -11.817152 -22.931461 -16.123381 5.095492 -52.692223 -3.010218 7.727037 1.199447 -11.578752 14.985797 -6.162560 8.065472 25.088997 15.476028 8.792230 9.372024 71.757779 4.679912 22.348305 -12.058582 70.314065 12.090275 1.205790 0.815179 -4.154099 
1.171320 0.734826 1.247181 40.287887 -7.187896 90.346465 -1.676146 -1.819866 -7.617217 1.016508 6.579399 5.349581 -10.299479 4.798069 38.774360 0.000000 -0.000000 0.000000 3.880441 -2.993595 -7.146619 -3.846376 -11.828478 8.257256 13.839781 -4.441801 40.943054 0.000000 -0.000000 0.000000 -0.794441 5.790095 7.406607 -1.426352 -2.262598 2.715735 2.298906 1.228255 -7.353242 -9.840605 32.600772 -9.862074 -5.318041 33.952679 -10.476530 -19.229137 -17.246106 4.393906 -56.727022 -8.425535 9.322560 -2.629025 -12.169564 16.457848 -9.538342 7.932671 19.611696 13.944522 6.261050 9.304007 73.274613 4.899900 20.467855 -11.673379 60.962820 10.905042 2.616325 -0.055937 -2.062457 
1.166704 0.732149 1.261690 57.382782 -7.581973 87.902336 -1.920802 -1.508324 -5.681842 0.515033 5.694614 5.244507 -10.375451 4.696099 40.795911 0.000000 -0.000000 0.000000 3.053642 -2.970634 -6.197508 -3.953284 -9.917161 7.202962 15.067878 -3.110084 40.519130 0.000000 -0.000000 0.000000 -2.361330 5.511548 8.091935 -0.580727 -2.650520 1.930778 3.332481 1.367160 -6.674109 -10.404383 32.155418 -7.849096 -4.742037 33.182074 -10.944031 -17.358041 -19.345201 4.351704 -60.001313 -11.893189 12.451100 -2.604096 -13.473558 17.228614 -9.962197 7.580281 16.050995 13.009709 5.684690 9.539447 72.047501 2.603902 17.966700 -12.398708 54.685824 8.969614 8.999512 -1.005387 -5.004196 
1.165819 0.730348 1.267066 76.146867 -7.591306 86.902820 -2.306186 -2.671937 -7.233143 -0.421576 5.504541 7.637623 -9.005431 4.996037 40.001620 0.000000 -0.000000 0.000000 1.823644 -4.006143 -6.655525 -2.911769 -6.916127 7.755611 15.979209 -2.601551 40.164730 0.000000 -0.000000 0.000000 -3.403207 5.224494 4.646403 0.440998 -4.092168 3.680713 3.151547 1.084704 -6.703860 -9.563941 31.221733 -5.234003 -3.866575 33.080189 -10.683718 -17.340740 -19.780871 4.525091 -59.460145 -14.464588 13.604600 -4.439498 -14.432856 17.455664 -10.698129 7.824326 13.700690 13.228119 4.907543 10.694935 70.479563 0.208039 16.949297 -15.230149 49.866817 3.791296 9.206415 -2.170775 -5.260248 
